<svg aria-hidden="true" alt="ntrrg" role="img" xmlns="http://www.w3.org/2000/svg" viewBox="0 0 50 50">
  <path fill="#427819" d="m 37.924772,33.855631 c -1.068989,0 -2.121003,0.436359 -2.876893,1.192248 -0.755889,0.75589 -1.192248,1.807904 -1.192248,2.876893 0,1.06899 0.436359,2.123503 1.192248,2.879392 0.75589,0.75589 1.807904,1.192249 2.876893,1.192249 1.068989,0 2.123503,-0.436359 2.879392,-1.192249 0.75589,-0.755889 1.192249,-1.810402 1.192249,-2.879392 0,-1.068989 -0.436359,-2.121003 -1.192249,-2.876893 -0.755889,-0.755889 -1.810403,-1.192248 -2.879392,-1.192248 z M 12.330174,8.2610331 c -1.069007,0 -2.12099,0.4363457 -2.8768933,1.1922476 -0.7559019,0.7559033 -1.1922476,1.8078873 -1.1922476,2.8768933 0,1.069008 0.4363457,2.12349 1.1922476,2.879392 0.7559033,0.755903 1.8078863,1.192249 2.8768933,1.192249 1.069007,0 2.12349,-0.436346 2.879392,-1.192249 0.755903,-0.755902 1.192249,-1.810384 1.192249,-2.879392 0,-1.069006 -0.436346,-2.12099 -1.192249,-2.8768933 C 14.453664,8.6973788 13.399181,8.2610331 12.330174,8.2610331 Z m 9.890529,6.7213889 -7.238281,7.238281 12.796875,12.796875 7.238281,-7.238281 z"/>

  <path fill="currentColor" d="m 37.924772,8.2610331 c -1.069007,0 -2.12099,0.4363457 -2.876893,1.1922476 -0.755902,0.7559033 -1.192248,1.8078873 -1.192248,2.8768933 0,1.069008 0.436346,2.12349 1.192248,2.879392 0.755903,0.755903 1.807886,1.192249 2.876893,1.192249 1.069007,0 2.12349,-0.436346 2.879392,-1.192249 0.755903,-0.755902 1.192249,-1.810384 1.192249,-2.879392 0,-1.069006 -0.436346,-2.12099 -1.192249,-2.8768933 C 40.048262,8.6973788 38.993779,8.2610331 37.924772,8.2610331 Z M 37.797299,26.18975 c -3.071461,0 -6.036417,1.227431 -8.208267,3.399282 -2.171851,2.17185 -3.399282,5.136806 -3.399282,8.208267 0,3.071461 1.227431,6.036417 3.399282,8.208267 2.17185,2.171851 5.136806,3.399282 8.208267,3.399282 3.071461,0 6.036417,-1.227431 8.208267,-3.399282 2.171851,-2.17185 3.399282,-5.136806 3.399282,-8.208267 0,-3.071461 -1.227431,-6.036417 -3.399282,-8.208267 -2.17185,-2.171851 -5.136806,-3.399282 -8.208267,-3.399282 z m 0,5.118919 c 1.666614,0 3.410557,0.721124 4.589032,1.899598 1.178474,1.178475 1.899599,2.922418 1.899598,4.589032 0,1.666614 -0.721124,3.410557 -1.899598,4.589032 -1.178475,1.178474 -2.922418,1.899598 -4.589032,1.899598 -1.666614,0 -3.410557,-0.721124 -4.589032,-1.899598 -1.178474,-1.178475 -1.899598,-2.922418 -1.899598,-4.589032 0,-1.666614 0.721124,-3.410557 1.899598,-4.589032 1.178475,-1.178474 2.922418,-1.899598 4.589032,-1.899598 z m 0,-30.0736532 c -2.895855,0 -5.708184,1.1641436 -7.755863,3.2118221 -2.047679,2.0476791 -3.211822,4.8600084 -3.211822,7.7558631 0,2.895855 1.164143,5.708184 3.211822,7.755863 2.047679,2.047679 4.860008,3.211822 7.755863,3.211822 2.895855,0 5.708184,-1.164143 7.755863,-3.211822 2.047679,-2.047679 3.211822,-4.860008 3.211822,-7.755863 0,-2.8958547 -1.164143,-5.708184 -3.211822,-7.7558631 C 43.505483,2.3991594 40.693154,1.2350158 37.797299,1.2350158 Z m 0,3.8391897 c 1.84222,0 3.73879,0.7844137 5.041436,2.0870597 1.302646,1.302646 2.087059,3.1992158 2.087059,5.0414358 0,1.84222 -0.784413,3.73879 -2.087059,5.041436 -1.302646,1.302646 -3.199216,2.087059 -5.041436,2.087059 -1.84222,0 -3.73879,-0.784413 -5.041436,-2.087059 -1.302646,-1.302646 -2.08706,-3.199216 -2.087059,-5.041436 0,-1.84222 0.784413,-3.7387898 2.087059,-5.0414358 1.302646,-1.302646 3.199216,-2.0870597 5.041436,-2.0870597 z M 12.202701,26.829614 c -2.8958547,0 -5.708184,1.164143 -7.7558631,3.211822 -2.0476785,2.047679 -3.2118221,4.860008 -3.2118221,7.755863 0,2.895855 1.1641436,5.708184 3.2118221,7.755863 2.0476791,2.047679 4.8600084,3.211822 7.7558631,3.211822 2.895855,0 5.708184,-1.164143 7.755863,-3.211822 2.047679,-2.047679 3.211822,-4.860008 3.211822,-7.755863 0,-2.895855 -1.164143,-5.708184 -3.211822,-7.755863 -2.047679,-2.047679 -4.860008,-3.211822 -7.755863,-3.211822 z m 0,3.83919 c 1.84222,0 3.73879,0.784413 5.041436,2.087059 1.302646,1.302646 2.087059,3.199216 2.087059,5.041436 0,1.84222 -0.784413,3.73879 -2.087059,5.041436 -1.302646,1.302646 -3.199216,2.08706 -5.041436,2.087059 -1.84222,0 -3.7387898,-0.784413 -5.0414358,-2.087059 -1.302646,-1.302646 -2.0870597,-3.199216 -2.0870597,-5.041436 0,-1.84222 0.7844137,-3.73879 2.0870597,-5.041436 1.302646,-1.302646 3.1992158,-2.087059 5.0414358,-2.087059 z m 0,-30.07365311 c -3.0714605,0 -6.0364168,1.22743191 -8.2082676,3.39928251 -2.1718506,2.1718508 -3.39928251,5.1368071 -3.39928251,8.2082676 0,3.071461 1.22743191,6.036417 3.39928251,8.208267 2.1718508,2.171851 5.1368071,3.399282 8.2082676,3.399282 3.071461,0 6.036417,-1.227431 8.208267,-3.399282 2.171851,-2.17185 3.399282,-5.136806 3.399282,-8.208267 0,-3.0714605 -1.227431,-6.0364168 -3.399282,-8.2082676 -2.17185,-2.1718506 -5.136806,-3.39928251 -8.208267,-3.39928251 z m 0,5.11891961 c 1.666614,0 3.410557,0.7211246 4.589032,1.8995984 1.178474,1.1784751 1.899598,2.9224181 1.899598,4.5890321 0,1.666614 -0.721124,3.410557 -1.899598,4.589032 -1.178475,1.178474 -2.922418,1.899598 -4.589032,1.899598 -1.666614,0 -3.410557,-0.721124 -4.5890321,-1.899598 -1.1784738,-1.178475 -1.8995984,-2.922418 -1.8995984,-4.589032 0,-1.666614 0.7211246,-3.410557 1.8995984,-4.5890321 C 8.792144,6.4351951 10.536087,5.7140705 12.202701,5.7140705 Z M 33.958984,21.251953 v 7.496094 h 7.677735 v -7.496094 z m -25.5957028,0 v 7.496094 h 7.6777348 v -7.496094 z m 3.9668928,12.603678 c -1.069007,0 -2.12099,0.436346 -2.8768933,1.192248 -0.7559019,0.755903 -1.1922476,1.807887 -1.1922476,2.876893 0,1.069008 0.4363457,2.12349 1.1922476,2.879392 0.7559033,0.755903 1.8078863,1.192249 2.8768933,1.192249 1.069007,0 2.12349,-0.436346 2.879392,-1.192249 0.755903,-0.755902 1.192249,-1.810384 1.192249,-2.879392 0,-1.069006 -0.436346,-2.12099 -1.192249,-2.876893 -0.755902,-0.755902 -1.810385,-1.192248 -2.879392,-1.192248 z"/>
</svg>
